<?xml version="1.0" encoding="UTF-8"?>
<svg width="93px" height="93px" viewBox="0 0 93 93" version="1.1" xmlns="http://www.w3.org/2000/svg" xmlns:xlink="http://www.w3.org/1999/xlink">
    <!-- Generator: Sketch 53.2 (72643) - https://sketchapp.com -->
    <title>g13519</title>
    <desc>Created with Sketch.</desc>
    <g id="Page-1" stroke="none" stroke-width="1" fill="none" fill-rule="evenodd">
        <g id="g14289" transform="translate(-119.000000, -0.999973)" fill-rule="nonzero">
            <g id="g13519" transform="translate(118.238659, 0.776040)">
                <path d="M46.81113,0.8938 C21.4060315,0.8938 0.81113,21.4887015 0.81113,46.8938 C0.81113,72.2988985 21.4060315,92.8938 46.81113,92.8938 C72.2162285,92.8938 92.81113,72.2988985 92.81113,46.8938 C92.81113,21.4887015 72.2162285,0.8938 46.81113,0.8938 Z" id="path13521" fill="#3598DB"></path>
                <path d="M47.57285,11.94849 L45.25644,23.09498 L40.48496,18.08521 L40.14902,27.8899 L33.62753,21.07349 L35.4166,29.88404 L38.25253,33.0149 L36.34433,34.35474 L33.44003,31.20435 L22.31699,24.42701 L34.35214,36.79615 L33.10996,38.47388 L30.06894,35.48755 L20.72714,33.22193 L27.39316,40.19459 L17.95175,40.20459 L24.23886,46.69092 L12.15488,47.82568 L18.3873,54.11279 L18.02597,55.1167 L23.23105,60.39795 L20.79746,61.87647 L25.83847,67.05225 L21.69394,71.28857 L42.3873,92.67334 C43.8575106,92.8179001 45.3338316,92.8915522 46.81113,92.89404 C72.2162285,92.89404 92.81113,72.2991385 92.81113,46.89404 C92.8085491,45.7540934 92.7635948,44.6146368 92.67636,43.47803 L71.63144,21.96045 L66.09433,24.93506 L62.01035,20.69483 L59.41855,22.64014 L55.04355,17.90381 L47.57285,11.94873 L47.57285,11.94849 Z" id="path13523" fill-opacity="0.21461188" fill="#000000"></path>
                <path d="M46.8343,11.61868 C45.9865183,11.6314323 45.3093035,12.3285038 45.32105,13.1763 L45.32105,26.12024 C45.3130017,26.6744404 45.6040544,27.1900217 46.0827095,27.4694713 C46.5613647,27.7489209 47.1534253,27.7489209 47.6320805,27.4694713 C48.1107356,27.1900217 48.4017883,26.6744404 48.39374,26.12024 L48.39374,13.1763 C48.3994921,12.76114 48.2369824,12.3613241 47.9432204,12.0679049 C47.6494584,11.7744858 47.249453,11.6124431 46.8343,11.61868 Z M39.49671,17.55426 C39.0091915,17.5431796 38.5453572,17.7641769 38.2468373,18.1497712 C37.9483174,18.5353655 37.8505581,19.0397712 37.98341,19.50897 L40.0494,27.21926 C40.1829523,27.7589429 40.5976232,28.1843838 41.1337051,28.3317271 C41.669787,28.4790704 42.2436472,28.3253296 42.6342677,27.9297167 C43.0248881,27.5341039 43.1713291,26.9583376 43.01719,26.42417 L40.9512,18.71388 C40.7820101,18.044431 40.1870268,17.5700692 39.49671,17.55426 L39.49671,17.55426 Z M54.17102,17.55626 C53.4989274,17.5922831 52.9285112,18.061531 52.76359,18.71407 L50.69671,26.42436 C50.477152,27.2441356 50.9637244,28.086682 51.7835,28.30624 C52.6032756,28.525798 53.445822,28.0392256 53.66538,27.21945 L55.73138,19.50916 C55.8445074,19.1095254 55.7910289,18.6811154 55.5831309,18.3215544 C55.375233,17.9619935 55.0306268,17.7019133 54.62784,17.60058 C54.4786433,17.5630259 54.3246524,17.5480927 54.17102,17.55628 L54.17102,17.55626 Z M61.1577,20.40918 C60.5964937,20.4045116 60.077388,20.7061961 59.80362,21.19612 L55.81187,28.10861 C55.536124,28.5840566 55.5353341,29.1705817 55.8097986,29.6467693 C56.084263,30.1229569 56.5921765,30.4162762 57.1417994,30.4159977 C57.6914222,30.4157192 58.1990382,30.1218855 58.47302,29.64542 L62.46385,22.73203 C62.6763227,22.3753938 62.7354458,21.9479589 62.627759,21.547038 C62.5200722,21.1461172 62.2547401,20.8058305 61.89217,20.60365 C61.6674868,20.4783636 61.4149428,20.411496 61.1577,20.40918 L61.1577,20.40918 Z M32.51007,20.4101 C31.9684299,20.4312196 31.477992,20.736171 31.2194576,21.2125952 C30.9609232,21.6890194 30.9725484,22.2664182 31.25005,22.73205 L35.24084,29.64454 C35.510192,30.1299192 36.0204059,30.4322748 36.5755035,30.435469 C37.130601,30.4386632 37.6442607,30.1421992 37.9191807,29.6599519 C38.1941007,29.1777046 38.187529,28.5846667 37.90199,28.10863 L33.91121,21.19615 C33.6292552,20.6913829 33.0878099,20.387628 32.51007,20.4101 L32.51007,20.4101 Z M23.14265,21.44128 C22.5171083,21.4411702 21.9539461,21.8202982 21.7186824,22.3999131 C21.4834188,22.9795279 21.6230251,23.6439073 22.07168,24.07981 L31.22472,33.23194 C31.6108424,33.6298114 32.1813664,33.7888077 32.717614,33.6479867 C33.2538617,33.5071658 33.6726551,33.0883704 33.8134736,32.5521221 C33.9542921,32.0158738 33.7952931,31.4453505 33.39742,31.05923 L24.24531,21.90711 C23.9558403,21.6091593 23.5580622,21.4411139 23.14265,21.44128 L23.14265,21.44128 Z M70.526,21.4422 C70.1267859,21.453975 69.7478438,21.6207315 69.46948,21.90713 L60.31649,31.06016 C59.9184195,31.4462371 59.7592692,32.0168564 59.9000616,32.5532268 C60.0408541,33.0895971 60.4597416,33.5084866 60.9961113,33.6492815 C61.532481,33.7900764 62.1031011,33.6309287 62.48918,33.23286 L71.64222,24.07984 C71.9403877,23.7904784 72.108657,23.3926976 72.108657,22.977205 C72.108657,22.5617124 71.9403877,22.1639316 71.64222,21.87457 L71.64222,21.87457 C71.3441214,21.5857142 70.9418344,21.4297576 70.52693,21.4422 L70.526,21.4422 Z M46.85695,30.64769 C42.6017208,30.6477218 38.5207971,32.3381807 35.5119801,35.3471665 C32.5031631,38.3561523 30.8129331,42.4371709 30.81314,46.6924 C30.8132135,55.5531191 37.9962309,62.7361307 46.85695,62.736197 C55.7176691,62.7361307 62.9006865,55.5531191 62.90076,46.6924 C62.9009669,42.4371709 61.2107369,38.3561523 58.2019199,35.3471665 C55.1931029,32.3381807 51.1121792,30.6477218 46.85695,30.64769 Z M71.65306,30.8684 C71.3595253,30.8591034 71.0694749,30.9341251 70.81726,31.08458 L63.90389,35.07631 C63.4118653,35.3421867 63.1031627,35.8544085 63.0979104,36.4136501 C63.092658,36.9728917 63.3916856,37.4908212 63.8786298,37.7658923 C64.365574,38.0409633 64.9635223,38.0297286 65.43979,37.73656 L72.35316,33.74574 C72.7155201,33.5430953 72.9804515,33.202436 73.0876268,32.8013336 C73.1948021,32.4002312 73.1350981,31.9728287 72.92211,31.61645 C72.6539893,31.1673534 72.1758259,30.8854968 71.65306,30.8684 L71.65306,30.8684 Z M22.16847,30.86932 C21.4590522,30.8430912 20.8240227,31.3062784 20.6322929,31.9897997 C20.4405632,32.6733209 20.7420546,33.3992051 21.36162,33.74576 L28.27411,37.73658 C28.7501503,38.0221817 29.34323,38.0287902 29.825516,37.7538669 C30.3078021,37.4789435 30.6042857,36.9652464 30.6010719,36.4101137 C30.5978581,35.854981 30.2954468,35.344751 29.81001,35.07543 L22.89752,31.0846 C22.6763707,30.9529088 22.4256822,30.8788834 22.16847,30.86932 L22.16847,30.86932 Z M19.21875,37.7601 C18.4508982,37.7788163 17.8148205,38.3616716 17.7292494,39.1249699 C17.6436783,39.8882681 18.1349038,40.597502 18.87955,40.78578 L26.58894,42.85175 C27.1221341,43.0030929 27.6955118,42.8555431 28.0894208,42.4656247 C28.4833298,42.0757063 28.6367101,41.5038607 28.4908041,40.9691532 C28.344898,40.4344458 27.9223226,40.0197616 27.38496,39.88396 L19.67464,37.81799 C19.5264384,37.7759454 19.3727566,37.7564271 19.21875,37.76009 L19.21875,37.7601 Z M74.44898,37.7601 C74.3107156,37.7609168 74.1731941,37.7803926 74.04014,37.818 L66.32894,39.88397 C65.7914341,40.0196344 65.3686827,40.4343191 65.2226893,40.9691119 C65.0766959,41.5039047 65.2300998,42.0758745 65.6241149,42.4658354 C66.01813,42.8557963 66.5916557,43.0032766 67.12491,42.85176 L74.83523,40.78579 C75.237716,40.683866 75.5818221,40.4233963 75.789186,40.0636968 C75.9965499,39.7039973 76.0495187,39.2756893 75.93603,38.87631 C75.7472628,38.2125118 75.1390845,37.7560049 74.44898,37.76011 L74.44898,37.7601 Z M13.34198,45.15561 C12.7879429,45.1478164 12.2726235,45.4389275 11.9933307,45.9174809 C11.7140379,46.3960344 11.7140379,46.9878956 11.9933307,47.4664491 C12.2726235,47.9450025 12.7879429,48.2361136 13.34198,48.22832 L26.28592,48.22832 C26.8399571,48.2361136 27.3552765,47.9450025 27.6345693,47.4664491 C27.9138621,46.9878956 27.9138621,46.3960344 27.6345693,45.9174809 C27.3552765,45.4389275 26.8399571,45.1478164 26.28592,45.15561 L13.34198,45.15561 L13.34198,45.15561 Z M67.42794,45.15561 C66.8739029,45.1478164 66.3585835,45.4389275 66.0792907,45.9174809 C65.7999979,46.3960344 65.7999979,46.9878956 66.0792907,47.4664491 C66.3585835,47.9450025 66.8739029,48.2361136 67.42794,48.22832 L80.37192,48.22832 C80.787228,48.234312 81.1872703,48.0719111 81.4808813,47.7781268 C81.7744923,47.4843425 81.9366571,47.0842044 81.93042,46.6689 C81.9176911,45.8207541 81.2200731,45.1433731 80.37192,45.15561 L67.42794,45.15561 L67.42794,45.15561 Z M26.99871,50.474294 C26.8601344,50.4750238 26.7222945,50.4944971 26.58894,50.532184 L18.87955,52.598149 C18.3399073,52.7317382 17.9145147,53.146407 17.7671939,53.6824638 C17.619873,54.2185207 17.7736043,54.7923462 18.1691848,55.1829565 C18.5647653,55.5735668 19.1404886,55.7200307 19.67464,55.565944 L27.38496,53.499976 C28.1374284,53.3087997 28.629057,52.5863381 28.530745,51.8162135 C28.4324331,51.046089 27.775074,50.4703039 26.99871,50.474294 L26.99871,50.474294 Z M66.66994,50.474294 C65.9019397,50.492613 65.2654899,51.0753377 65.1796866,51.8387497 C65.0938833,52.6021617 65.5850977,53.3116297 66.32987,53.499976 L74.03921,55.565944 C74.5723823,55.7172178 75.1457032,55.5696381 75.5395696,55.1797333 C75.933436,54.7898285 76.0868037,54.2180288 75.9409273,53.6833545 C75.7950509,53.1486803 75.3725393,52.733999 74.83523,52.598149 L67.12491,50.532184 C66.9770036,50.4902342 66.8236388,50.4707202 66.66994,50.474294 L66.66994,50.474294 Z M29.10991,55.431166 C28.8163747,55.4218712 28.5263243,55.496895 28.27411,55.647352 L21.36162,59.638177 C20.876193,59.907503 20.5737909,60.4177301 20.5705802,60.9728567 C20.5673694,61.5279833 20.8638493,62.0416742 21.3461285,62.3165973 C21.8284076,62.5915203 22.4214802,62.5849186 22.89752,62.299328 L29.81001,58.308503 C30.4129012,57.9719346 30.7172379,57.2745399 30.5539974,56.6036385 C30.3907568,55.9327372 29.800036,55.4531236 29.10991,55.431166 L29.10991,55.431166 Z M64.71162,55.431166 C64.0013691,55.403671 63.3649662,55.8669152 63.1728601,56.5512452 C62.9807541,57.2355753 63.2830946,57.9623449 63.90389,58.308503 L70.81633,62.299328 C71.2917363,62.5744407 71.8778415,62.5748558 72.353637,62.3004167 C72.8294325,62.0259776 73.1225444,61.5184296 73.1224459,60.969159 C73.1223475,60.4198885 72.8290538,59.9124456 72.35316,59.638177 L65.44067,55.647352 C65.2196056,55.5153431 64.9689117,55.4410046 64.71162,55.431166 L64.71162,55.431166 Z M61.38746,59.686115 C60.7619134,59.6860006 60.1987449,60.0651303 59.9634803,60.6447501 C59.7282156,61.2243699 59.8678271,61.8887544 60.31649,62.324656 L69.46948,71.476778 C69.8556715,71.8743189 70.4260308,72.0330648 70.9620731,71.8922055 C71.4981154,71.7513462 71.9167536,71.332715 72.0576221,70.7966752 C72.1984905,70.2606353 72.0397544,69.6902733 71.64222,69.304075 L62.48918,60.151953 C62.1999389,59.8542334 61.8025472,59.6862051 61.38746,59.686115 L61.38746,59.686115 Z M32.2812,59.687042 C31.8819993,59.6988283 31.5030733,59.8655855 31.22472,60.151976 L22.07168,69.304098 C21.6834903,69.6923647 21.5319464,70.2582456 21.674141,70.7885502 C21.8163357,71.3188549 22.2306627,71.7330044 22.7610282,71.8749719 C23.2913937,72.0169393 23.8572096,71.865153 24.24531,71.476797 L33.39742,62.324675 C33.851827,61.8829942 33.9884671,61.2076487 33.7414987,60.6240612 C33.4945303,60.0404738 32.9146184,59.668366 32.2812,59.687042 L32.2812,59.687042 Z M36.59584,62.951522 C36.0341127,62.9466997 35.5145281,63.2488073 35.24084,63.739374 L31.25005,70.651858 C30.9646109,71.127891 30.9581001,71.7208644 31.233018,72.2030501 C31.507936,72.6852358 32.0215399,72.9816661 32.576583,72.9784985 C33.1316262,72.9753309 33.6418133,72.673058 33.91121,72.187766 L37.90199,65.275283 C38.1840733,64.8025354 38.1916846,64.2150006 37.9219423,63.7351043 C37.6522001,63.255208 37.1463294,62.9562934 36.59584,62.951522 L36.59584,62.951522 Z M57.07281,62.953422 C56.5310047,62.9742305 56.0402767,63.279059 55.7815234,63.7555384 C55.5227701,64.2320179 55.5343027,64.8096003 55.81187,65.275371 L59.80362,72.187855 C60.0694428,72.6799824 60.5816961,72.988783 61.1410021,72.9940664 C61.7003081,72.9993498 62.2183035,72.7002812 62.4933757,72.2132633 C62.7684478,71.7262453 62.7571387,71.1282208 62.46385,70.651951 L58.47302,63.739468 C58.1912179,63.2350087 57.6502202,62.9313049 57.07281,62.953422 L57.07281,62.953422 Z M52.21182,65.004916 C51.7241402,64.9935348 51.2600304,65.2144052 50.9612925,65.6000434 C50.6625547,65.9856816 50.5646864,66.4902641 50.69759,66.959623 L52.76359,74.669906 C52.8971337,75.2095977 53.3118044,75.6350494 53.8478915,75.7823983 C54.3839785,75.9297471 54.9578464,75.776005 55.3484696,75.3803858 C55.7390927,74.9847666 55.8855296,74.4089912 55.73138,73.87482 L53.66538,66.164532 C53.4962814,65.4954108 52.9017869,65.0211371 52.21182,65.004916 L52.21182,65.004916 Z M41.61064,65.005843 C41.55939,65.003584 41.5080591,65.003893 41.45684,65.006769 C40.7847439,65.0427877 40.2143226,65.512036 40.0494,66.164578 L37.98341,73.874866 C37.8292604,74.4090372 37.9756973,74.9848126 38.3663204,75.3804318 C38.7569436,75.776051 39.3308115,75.9297931 39.8668985,75.7824443 C40.4029856,75.6350954 40.8176563,75.2096437 40.9512,74.669952 L43.01719,66.959664 C43.1450661,66.5084711 43.0598873,66.0235814 42.7858934,65.6429835 C42.5118996,65.2623856 42.0790928,65.0277546 41.61064,65.005861 L41.61064,65.005843 Z M46.8343,65.705048 C45.9861607,65.7177987 45.3088001,66.4154244 45.32105,67.263571 L45.32105,80.207518 C45.3130017,80.7617184 45.6040544,81.2772997 46.0827095,81.5567493 C46.5613647,81.8361989 47.1534253,81.8361989 47.6320805,81.5567493 C48.1107356,81.2772997 48.4017883,80.7617184 48.39374,80.207518 L48.39374,67.263571 C48.3997384,66.8482555 48.2373376,66.4482041 47.9435482,66.1545874 C47.6497588,65.8609708 47.2496119,65.6988053 46.8343,65.705048 L46.8343,65.705048 Z" id="path13525" fill="#F2C512"></path>
                <path d="M52.1666,39.72974 C33.24732,50.80188 24.08204,49.57444 13.64707,66.86841 L37.58261,91.95435 C40.61927,92.57766 43.71116,92.89241 46.81113,92.8938 C61.98852,92.8935 76.18894,85.40672 84.76425,72.88404 L52.1666,39.72974 Z" id="path13527" fill-opacity="0.21461188" fill="#000000"></path>
                <path d="M20.90562,70.246499 L61.03275,70.246499 C73.28257,67.569134 69.64491,50.223251 57.70615,51.74225 C53.84547,27.34623 27.64243,34.62529 25.89552,46.12863 C4.40446,44.76663 7.8239,70.165267 20.90562,70.246499 L20.90562,70.246499 Z" id="path13529" fill="#ECF0F3"></path>
            </g>
        </g>
    </g>
</svg>